<?xml version="1.0" encoding="UTF-8"?>
<!DOCTYPE svg PUBLIC "-//W3C//DTD SVG 1.1//EN" "http://www.w3.org/Graphics/SVG/1.1/DTD/svg11.dtd">
<svg version="1.1" xmlns="http://www.w3.org/2000/svg" xmlns:xlink="http://www.w3.org/1999/xlink" x="0" y="0" width="240" height="200" viewBox="0, 0, 240, 200">
  <g id="Background">
    <rect x="0" y="0" width="240" height="200" fill="#000000" fill-opacity="0"/>
  </g>
  <g id="Layer_1">
    <g>
      <path d="M30.5,10.5 L60.5,10.5 L60.5,40.5 L30.5,40.5 z" fill="#65A1CF"/>
      <path d="M30.5,10.5 L60.5,10.5 L60.5,40.5 L30.5,40.5 z" fill-opacity="0" stroke="#294270" stroke-width="1"/>
    </g>
    <g>
      <path d="M60.5,10.5 L90.5,10.5 L90.5,40.5 L60.5,40.5 z" fill="#65A1CF"/>
      <path d="M60.5,10.5 L90.5,10.5 L90.5,40.5 L60.5,40.5 z" fill-opacity="0" stroke="#294270" stroke-width="1"/>
    </g>
    <g>
      <path d="M90.5,10.5 L120.5,10.5 L120.5,40.5 L90.5,40.5 z" fill="#65A1CF"/>
      <path d="M90.5,10.5 L120.5,10.5 L120.5,40.5 L90.5,40.5 z" fill-opacity="0" stroke="#294270" stroke-width="1"/>
    </g>
    <g>
      <path d="M120.5,10.5 L150.5,10.5 L150.5,40.5 L120.5,40.5 z" fill="#8FC7ED"/>
      <path d="M120.5,10.5 L150.5,10.5 L150.5,40.5 L120.5,40.5 z" fill-opacity="0" stroke="#294270" stroke-width="1"/>
    </g>
    <g>
      <path d="M150.5,10.5 L180.5,10.5 L180.5,40.5 L150.5,40.5 z" fill="#8FC7ED"/>
      <path d="M150.5,10.5 L180.5,10.5 L180.5,40.5 L150.5,40.5 z" fill-opacity="0" stroke="#294270" stroke-width="1"/>
    </g>
    <g>
      <path d="M180.5,10.5 L210.5,10.5 L210.5,40.5 L180.5,40.5 z" fill="#8FC7ED"/>
      <path d="M180.5,10.5 L210.5,10.5 L210.5,40.5 L180.5,40.5 z" fill-opacity="0" stroke="#294270" stroke-width="1"/>
    </g>
    <g>
      <path d="M30.5,40.5 L60.5,40.5 L60.5,70.5 L30.5,70.5 z" fill="#65A1CF"/>
      <path d="M30.5,40.5 L60.5,40.5 L60.5,70.5 L30.5,70.5 z" fill-opacity="0" stroke="#294270" stroke-width="1"/>
    </g>
    <g>
      <path d="M60.5,40.5 L90.5,40.5 L90.5,70.5 L60.5,70.5 z" fill="#8FC7ED"/>
      <path d="M60.5,40.5 L90.5,40.5 L90.5,70.5 L60.5,70.5 z" fill-opacity="0" stroke="#294270" stroke-width="1"/>
    </g>
    <g>
      <path d="M90.5,40.5 L120.5,40.5 L120.5,70.5 L90.5,70.5 z" fill="#65A1CF"/>
      <path d="M90.5,40.5 L120.5,40.5 L120.5,70.5 L90.5,70.5 z" fill-opacity="0" stroke="#294270" stroke-width="1"/>
    </g>
    <g>
      <path d="M120.5,40.5 L150.5,40.5 L150.5,70.5 L120.5,70.5 z" fill="#294270"/>
      <path d="M120.5,40.5 L150.5,40.5 L150.5,70.5 L120.5,70.5 z" fill-opacity="0" stroke="#294270" stroke-width="1"/>
    </g>
    <g>
      <path d="M150.5,40.5 L180.5,40.5 L180.5,70.5 L150.5,70.5 z" fill="#294270"/>
      <path d="M150.5,40.5 L180.5,40.5 L180.5,70.5 L150.5,70.5 z" fill-opacity="0" stroke="#294270" stroke-width="1"/>
    </g>
    <g>
      <path d="M180.5,40.5 L210.5,40.5 L210.5,70.5 L180.5,70.5 z" fill="#8FC7ED"/>
      <path d="M180.5,40.5 L210.5,40.5 L210.5,70.5 L180.5,70.5 z" fill-opacity="0" stroke="#294270" stroke-width="1"/>
    </g>
    <g>
      <path d="M30.5,70.5 L60.5,70.5 L60.5,100.5 L30.5,100.5 z" fill="#65A1CF"/>
      <path d="M30.5,70.5 L60.5,70.5 L60.5,100.5 L30.5,100.5 z" fill-opacity="0" stroke="#294270" stroke-width="1"/>
    </g>
    <g>
      <path d="M60.5,70.5 L90.5,70.5 L90.5,100.5 L60.5,100.5 z" fill="#65A1CF"/>
      <path d="M60.5,70.5 L90.5,70.5 L90.5,100.5 L60.5,100.5 z" fill-opacity="0" stroke="#294270" stroke-width="1"/>
    </g>
    <g>
      <path d="M90.5,70.5 L120.5,70.5 L120.5,100.5 L90.5,100.5 z" fill="#65A1CF"/>
      <path d="M90.5,70.5 L120.5,70.5 L120.5,100.5 L90.5,100.5 z" fill-opacity="0" stroke="#294270" stroke-width="1"/>
    </g>
    <g>
      <path d="M120.5,70.5 L150.5,70.5 L150.5,100.5 L120.5,100.5 z" fill="#8FC7ED"/>
      <path d="M120.5,70.5 L150.5,70.5 L150.5,100.5 L120.5,100.5 z" fill-opacity="0" stroke="#294270" stroke-width="1"/>
    </g>
    <g>
      <path d="M150.5,70.5 L180.5,70.5 L180.5,100.5 L150.5,100.5 z" fill="#294270"/>
      <path d="M150.5,70.5 L180.5,70.5 L180.5,100.5 L150.5,100.5 z" fill-opacity="0" stroke="#294270" stroke-width="1"/>
    </g>
    <g>
      <path d="M180.5,70.5 L210.5,70.5 L210.5,100.5 L180.5,100.5 z" fill="#8FC7ED"/>
      <path d="M180.5,70.5 L210.5,70.5 L210.5,100.5 L180.5,100.5 z" fill-opacity="0" stroke="#294270" stroke-width="1"/>
    </g>
    <g>
      <path d="M30.5,100.5 L60.5,100.5 L60.5,130.5 L30.5,130.5 z" fill="#8FC7ED"/>
      <path d="M30.5,100.5 L60.5,100.5 L60.5,130.5 L30.5,130.5 z" fill-opacity="0" stroke="#294270" stroke-width="1"/>
    </g>
    <g>
      <path d="M60.5,100.5 L90.5,100.5 L90.5,130.5 L60.5,130.5 z" fill="#294270"/>
      <path d="M60.5,100.5 L90.5,100.5 L90.5,130.5 L60.5,130.5 z" fill-opacity="0" stroke="#294270" stroke-width="1"/>
    </g>
    <g>
      <path d="M90.5,100.5 L120.5,100.5 L120.5,130.5 L90.5,130.5 z" fill="#294270"/>
      <path d="M90.5,100.5 L120.5,100.5 L120.5,130.5 L90.5,130.5 z" fill-opacity="0" stroke="#294270" stroke-width="1"/>
    </g>
    <g>
      <path d="M120.5,100.5 L150.5,100.5 L150.5,130.5 L120.5,130.5 z" fill="#65A1CF"/>
      <path d="M120.5,100.5 L150.5,100.5 L150.5,130.5 L120.5,130.5 z" fill-opacity="0" stroke="#294270" stroke-width="1"/>
    </g>
    <g>
      <path d="M150.5,100.5 L180.5,100.5 L180.5,130.5 L150.5,130.5 z" fill="#294270"/>
      <path d="M150.5,100.5 L180.5,100.5 L180.5,130.5 L150.5,130.5 z" fill-opacity="0" stroke="#294270" stroke-width="1"/>
    </g>
    <g>
      <path d="M180.5,100.5 L210.5,100.5 L210.5,130.5 L180.5,130.5 z" fill="#8FC7ED"/>
      <path d="M180.5,100.5 L210.5,100.5 L210.5,130.5 L180.5,130.5 z" fill-opacity="0" stroke="#294270" stroke-width="1"/>
    </g>
    <g>
      <path d="M30.5,130.5 L60.5,130.5 L60.5,160.5 L30.5,160.5 z" fill="#8FC7ED"/>
      <path d="M30.5,130.5 L60.5,130.5 L60.5,160.5 L30.5,160.5 z" fill-opacity="0" stroke="#294270" stroke-width="1"/>
    </g>
    <g>
      <path d="M60.5,130.5 L90.5,130.5 L90.5,160.5 L60.5,160.5 z" fill="#8FC7ED"/>
      <path d="M60.5,130.5 L90.5,130.5 L90.5,160.5 L60.5,160.5 z" fill-opacity="0" stroke="#294270" stroke-width="1"/>
    </g>
    <g>
      <path d="M90.5,130.5 L120.5,130.5 L120.5,160.5 L90.5,160.5 z" fill="#65A1CF"/>
      <path d="M90.5,130.5 L120.5,130.5 L120.5,160.5 L90.5,160.5 z" fill-opacity="0" stroke="#294270" stroke-width="1"/>
    </g>
    <g>
      <path d="M120.5,130.5 L150.5,130.5 L150.5,160.5 L120.5,160.5 z" fill="#65A1CF"/>
      <path d="M120.5,130.5 L150.5,130.5 L150.5,160.5 L120.5,160.5 z" fill-opacity="0" stroke="#294270" stroke-width="1"/>
    </g>
    <g>
      <path d="M150.5,130.5 L180.5,130.5 L180.5,160.5 L150.5,160.5 z" fill="#65A1CF"/>
      <path d="M150.5,130.5 L180.5,130.5 L180.5,160.5 L150.5,160.5 z" fill-opacity="0" stroke="#294270" stroke-width="1"/>
    </g>
    <g>
      <path d="M180.5,130.5 L210.5,130.5 L210.5,160.5 L180.5,160.5 z" fill="#8FC7ED"/>
      <path d="M180.5,130.5 L210.5,130.5 L210.5,160.5 L180.5,160.5 z" fill-opacity="0" stroke="#294270" stroke-width="1"/>
    </g>
    <g>
      <path d="M30.5,160.5 L60.5,160.5 L60.5,190.5 L30.5,190.5 z" fill="#8FC7ED"/>
      <path d="M30.5,160.5 L60.5,160.5 L60.5,190.5 L30.5,190.5 z" fill-opacity="0" stroke="#294270" stroke-width="1"/>
    </g>
    <g>
      <path d="M60.5,160.5 L90.5,160.5 L90.5,190.5 L60.5,190.5 z" fill="#8FC7ED"/>
      <path d="M60.5,160.5 L90.5,160.5 L90.5,190.5 L60.5,190.5 z" fill-opacity="0" stroke="#294270" stroke-width="1"/>
    </g>
    <g>
      <path d="M90.5,160.5 L120.5,160.5 L120.5,190.5 L90.5,190.5 z" fill="#65A1CF"/>
      <path d="M90.5,160.5 L120.5,160.5 L120.5,190.5 L90.5,190.5 z" fill-opacity="0" stroke="#294270" stroke-width="1"/>
    </g>
    <g>
      <path d="M120.5,160.5 L150.5,160.5 L150.5,190.5 L120.5,190.5 z" fill="#65A1CF"/>
      <path d="M120.5,160.5 L150.5,160.5 L150.5,190.5 L120.5,190.5 z" fill-opacity="0" stroke="#294270" stroke-width="1"/>
    </g>
    <g>
      <path d="M150.5,160.5 L180.5,160.5 L180.5,190.5 L150.5,190.5 z" fill="#65A1CF"/>
      <path d="M150.5,160.5 L180.5,160.5 L180.5,190.5 L150.5,190.5 z" fill-opacity="0" stroke="#294270" stroke-width="1"/>
    </g>
    <g>
      <path d="M180.5,160.5 L210.5,160.5 L210.5,190.5 L180.5,190.5 z" fill="#8FC7ED"/>
      <path d="M180.5,160.5 L210.5,160.5 L210.5,190.5 L180.5,190.5 z" fill-opacity="0" stroke="#294270" stroke-width="1"/>
    </g>
    <path d="M30.5,10.5 L210.5,10.5 L210.5,190.5 L30.5,190.5 z" fill-opacity="0" stroke="#294270" stroke-width="4"/>
    <g>
      <path d="M75.5,65.5 C69.977,65.5 65.5,61.023 65.5,55.5 C65.5,49.977 69.977,45.5 75.5,45.5 C81.023,45.5 85.5,49.977 85.5,55.5 C85.5,61.023 81.023,65.5 75.5,65.5 z" fill="#FABA00"/>
      <path d="M75.5,65.5 C69.977,65.5 65.5,61.023 65.5,55.5 C65.5,49.977 69.977,45.5 75.5,45.5 C81.023,45.5 85.5,49.977 85.5,55.5 C85.5,61.023 81.023,65.5 75.5,65.5 z" fill-opacity="0" stroke="#294270" stroke-width="1"/>
    </g>
    <text transform="matrix(1, 0, 0, 1, 75, 55)">
      <tspan x="-5.164" y="6.5" font-family="Roboto-Bold" font-size="18" fill="#294270">1</tspan>
    </text>
    <g>
      <path d="M135.5,155.5 C129.977,155.5 125.5,151.023 125.5,145.5 C125.5,139.977 129.977,135.5 135.5,135.5 C141.023,135.5 145.5,139.977 145.5,145.5 C145.5,151.023 141.023,155.5 135.5,155.5 z" fill="#FABA00"/>
      <path d="M135.5,155.5 C129.977,155.5 125.5,151.023 125.5,145.5 C125.5,139.977 129.977,135.5 135.5,135.5 C141.023,135.5 145.5,139.977 145.5,145.5 C145.5,151.023 141.023,155.5 135.5,155.5 z" fill-opacity="0" stroke="#294270" stroke-width="1"/>
    </g>
    <text transform="matrix(1, 0, 0, 1, 135, 145)">
      <tspan x="-5.164" y="6.5" font-family="Roboto-Bold" font-size="18" fill="#294270">2</tspan>
    </text>
    <g>
      <path d="M128.928,95.613 L130.183,88.295 L124.867,83.113 L132.214,82.045 L135.5,75.387 L138.786,82.045 L146.133,83.113 L140.817,88.295 L142.072,95.613 L135.5,92.158 z" fill="#F0801A"/>
      <path d="M128.928,95.613 L130.183,88.295 L124.867,83.113 L132.214,82.045 L135.5,75.387 L138.786,82.045 L146.133,83.113 L140.817,88.295 L142.072,95.613 L135.5,92.158 z" fill-opacity="0" stroke="#294270" stroke-width="1"/>
    </g>
  </g>
</svg>
