<?xml version="1.0" encoding="UTF-8"?>
<!DOCTYPE svg PUBLIC "-//W3C//DTD SVG 1.1//EN" "http://www.w3.org/Graphics/SVG/1.1/DTD/svg11.dtd">
<svg version="1.1" xmlns="http://www.w3.org/2000/svg" xmlns:xlink="http://www.w3.org/1999/xlink" x="0" y="0" width="240" height="200" viewBox="0, 0, 240, 200">
  <g id="Background">
    <rect x="0" y="0" width="240" height="200" fill="#000000" fill-opacity="0"/>
  </g>
  <g id="Layer_1">
    <g>
      <path d="M30.5,10.5 L60.5,10.5 L60.5,40.5 L30.5,40.5 z" fill="#65A1CF"/>
      <path d="M30.5,10.5 L60.5,10.5 L60.5,40.5 L30.5,40.5 z" fill-opacity="0" stroke="#294270" stroke-width="1"/>
    </g>
    <g>
      <path d="M60.5,10.5 L90.5,10.5 L90.5,40.5 L60.5,40.5 z" fill="#65A1CF"/>
      <path d="M60.5,10.5 L90.5,10.5 L90.5,40.5 L60.5,40.5 z" fill-opacity="0" stroke="#294270" stroke-width="1"/>
    </g>
    <g>
      <path d="M90.5,10.5 L120.5,10.5 L120.5,40.5 L90.5,40.5 z" fill="#65A1CF"/>
      <path d="M90.5,10.5 L120.5,10.5 L120.5,40.5 L90.5,40.5 z" fill-opacity="0" stroke="#294270" stroke-width="1"/>
    </g>
    <g>
      <path d="M120.5,10.5 L150.5,10.5 L150.5,40.5 L120.5,40.5 z" fill="#8FC7ED"/>
      <path d="M120.5,10.5 L150.5,10.5 L150.5,40.5 L120.5,40.5 z" fill-opacity="0" stroke="#294270" stroke-width="1"/>
    </g>
    <g>
      <path d="M150.5,10.5 L180.5,10.5 L180.5,40.5 L150.5,40.5 z" fill="#8FC7ED"/>
      <path d="M150.5,10.5 L180.5,10.5 L180.5,40.5 L150.5,40.5 z" fill-opacity="0" stroke="#294270" stroke-width="1"/>
    </g>
    <g>
      <path d="M180.5,10.5 L210.5,10.5 L210.5,40.5 L180.5,40.5 z" fill="#8FC7ED"/>
      <path d="M180.5,10.5 L210.5,10.5 L210.5,40.5 L180.5,40.5 z" fill-opacity="0" stroke="#294270" stroke-width="1"/>
    </g>
    <g>
      <path d="M30.5,40.5 L60.5,40.5 L60.5,70.5 L30.5,70.5 z" fill="#65A1CF"/>
      <path d="M30.5,40.5 L60.5,40.5 L60.5,70.5 L30.5,70.5 z" fill-opacity="0" stroke="#294270" stroke-width="1"/>
    </g>
    <g>
      <path d="M60.5,40.5 L90.5,40.5 L90.5,70.5 L60.5,70.5 z" fill="#8FC7ED"/>
      <path d="M60.5,40.5 L90.5,40.5 L90.5,70.5 L60.5,70.5 z" fill-opacity="0" stroke="#294270" stroke-width="1"/>
    </g>
    <g>
      <path d="M90.5,40.5 L120.5,40.5 L120.5,70.5 L90.5,70.5 z" fill="#65A1CF"/>
      <path d="M90.5,40.5 L120.5,40.5 L120.5,70.5 L90.5,70.5 z" fill-opacity="0" stroke="#294270" stroke-width="1"/>
    </g>
    <g>
      <path d="M120.5,40.5 L150.5,40.5 L150.5,70.5 L120.5,70.5 z" fill="#8FC7ED"/>
      <path d="M120.5,40.5 L150.5,40.5 L150.5,70.5 L120.5,70.5 z" fill-opacity="0" stroke="#294270" stroke-width="1"/>
    </g>
    <g>
      <path d="M150.5,40.5 L180.5,40.5 L180.5,70.5 L150.5,70.5 z" fill="#8FC7ED"/>
      <path d="M150.5,40.5 L180.5,40.5 L180.5,70.5 L150.5,70.5 z" fill-opacity="0" stroke="#294270" stroke-width="1"/>
    </g>
    <g>
      <path d="M180.5,40.5 L210.5,40.5 L210.5,70.5 L180.5,70.5 z" fill="#8FC7ED"/>
      <path d="M180.5,40.5 L210.5,40.5 L210.5,70.5 L180.5,70.5 z" fill-opacity="0" stroke="#294270" stroke-width="1"/>
    </g>
    <g>
      <path d="M30.5,70.5 L60.5,70.5 L60.5,100.5 L30.5,100.5 z" fill="#65A1CF"/>
      <path d="M30.5,70.5 L60.5,70.5 L60.5,100.5 L30.5,100.5 z" fill-opacity="0" stroke="#294270" stroke-width="1"/>
    </g>
    <g>
      <path d="M60.5,70.5 L90.5,70.5 L90.5,100.5 L60.5,100.5 z" fill="#65A1CF"/>
      <path d="M60.5,70.5 L90.5,70.5 L90.5,100.5 L60.5,100.5 z" fill-opacity="0" stroke="#294270" stroke-width="1"/>
    </g>
    <g>
      <path d="M90.5,70.5 L120.5,70.5 L120.5,100.5 L90.5,100.5 z" fill="#65A1CF"/>
      <path d="M90.5,70.5 L120.5,70.5 L120.5,100.5 L90.5,100.5 z" fill-opacity="0" stroke="#294270" stroke-width="1"/>
    </g>
    <g>
      <path d="M120.5,70.5 L150.5,70.5 L150.5,100.5 L120.5,100.5 z" fill="#8FC7ED"/>
      <path d="M120.5,70.5 L150.5,70.5 L150.5,100.5 L120.5,100.5 z" fill-opacity="0" stroke="#294270" stroke-width="1"/>
    </g>
    <g>
      <path d="M150.5,70.5 L180.5,70.5 L180.5,100.5 L150.5,100.5 z" fill="#8FC7ED"/>
      <path d="M150.5,70.5 L180.5,70.5 L180.5,100.5 L150.5,100.5 z" fill-opacity="0" stroke="#294270" stroke-width="1"/>
    </g>
    <g>
      <path d="M180.5,70.5 L210.5,70.5 L210.5,100.5 L180.5,100.5 z" fill="#8FC7ED"/>
      <path d="M180.5,70.5 L210.5,70.5 L210.5,100.5 L180.5,100.5 z" fill-opacity="0" stroke="#294270" stroke-width="1"/>
    </g>
    <g>
      <path d="M30.5,100.5 L60.5,100.5 L60.5,130.5 L30.5,130.5 z" fill="#8FC7ED"/>
      <path d="M30.5,100.5 L60.5,100.5 L60.5,130.5 L30.5,130.5 z" fill-opacity="0" stroke="#294270" stroke-width="1"/>
    </g>
    <g>
      <path d="M60.5,100.5 L90.5,100.5 L90.5,130.5 L60.5,130.5 z" fill="#8FC7ED"/>
      <path d="M60.5,100.5 L90.5,100.5 L90.5,130.5 L60.5,130.5 z" fill-opacity="0" stroke="#294270" stroke-width="1"/>
    </g>
    <g>
      <path d="M90.5,100.5 L120.5,100.5 L120.5,130.5 L90.5,130.5 z" fill="#65A1CF"/>
      <path d="M90.5,100.5 L120.5,100.5 L120.5,130.5 L90.5,130.5 z" fill-opacity="0" stroke="#294270" stroke-width="1"/>
    </g>
    <g>
      <path d="M120.5,100.5 L150.5,100.5 L150.5,130.5 L120.5,130.5 z" fill="#65A1CF"/>
      <path d="M120.5,100.5 L150.5,100.5 L150.5,130.5 L120.5,130.5 z" fill-opacity="0" stroke="#294270" stroke-width="1"/>
    </g>
    <g>
      <path d="M150.5,100.5 L180.5,100.5 L180.5,130.5 L150.5,130.5 z" fill="#65A1CF"/>
      <path d="M150.5,100.5 L180.5,100.5 L180.5,130.5 L150.5,130.5 z" fill-opacity="0" stroke="#294270" stroke-width="1"/>
    </g>
    <g>
      <path d="M180.5,100.5 L210.5,100.5 L210.5,130.5 L180.5,130.5 z" fill="#8FC7ED"/>
      <path d="M180.5,100.5 L210.5,100.5 L210.5,130.5 L180.5,130.5 z" fill-opacity="0" stroke="#294270" stroke-width="1"/>
    </g>
    <g>
      <path d="M30.5,130.5 L60.5,130.5 L60.5,160.5 L30.5,160.5 z" fill="#8FC7ED"/>
      <path d="M30.5,130.5 L60.5,130.5 L60.5,160.5 L30.5,160.5 z" fill-opacity="0" stroke="#294270" stroke-width="1"/>
    </g>
    <g>
      <path d="M60.5,130.5 L90.5,130.5 L90.5,160.5 L60.5,160.5 z" fill="#8FC7ED"/>
      <path d="M60.5,130.5 L90.5,130.5 L90.5,160.5 L60.5,160.5 z" fill-opacity="0" stroke="#294270" stroke-width="1"/>
    </g>
    <g>
      <path d="M90.5,130.5 L120.5,130.5 L120.5,160.5 L90.5,160.5 z" fill="#65A1CF"/>
      <path d="M90.5,130.5 L120.5,130.5 L120.5,160.5 L90.5,160.5 z" fill-opacity="0" stroke="#294270" stroke-width="1"/>
    </g>
    <g>
      <path d="M120.5,130.5 L150.5,130.5 L150.5,160.5 L120.5,160.5 z" fill="#65A1CF"/>
      <path d="M120.5,130.5 L150.5,130.5 L150.5,160.5 L120.5,160.5 z" fill-opacity="0" stroke="#294270" stroke-width="1"/>
    </g>
    <g>
      <path d="M150.5,130.5 L180.5,130.5 L180.5,160.5 L150.5,160.5 z" fill="#65A1CF"/>
      <path d="M150.5,130.5 L180.5,130.5 L180.5,160.5 L150.5,160.5 z" fill-opacity="0" stroke="#294270" stroke-width="1"/>
    </g>
    <g>
      <path d="M180.5,130.5 L210.5,130.5 L210.5,160.5 L180.5,160.5 z" fill="#8FC7ED"/>
      <path d="M180.5,130.5 L210.5,130.5 L210.5,160.5 L180.5,160.5 z" fill-opacity="0" stroke="#294270" stroke-width="1"/>
    </g>
    <g>
      <path d="M30.5,160.5 L60.5,160.5 L60.5,190.5 L30.5,190.5 z" fill="#8FC7ED"/>
      <path d="M30.5,160.5 L60.5,160.5 L60.5,190.5 L30.5,190.5 z" fill-opacity="0" stroke="#294270" stroke-width="1"/>
    </g>
    <g>
      <path d="M60.5,160.5 L90.5,160.5 L90.5,190.5 L60.5,190.5 z" fill="#8FC7ED"/>
      <path d="M60.5,160.5 L90.5,160.5 L90.5,190.5 L60.5,190.5 z" fill-opacity="0" stroke="#294270" stroke-width="1"/>
    </g>
    <g>
      <path d="M90.5,160.5 L120.5,160.5 L120.5,190.5 L90.5,190.5 z" fill="#65A1CF"/>
      <path d="M90.5,160.5 L120.5,160.5 L120.5,190.5 L90.5,190.5 z" fill-opacity="0" stroke="#294270" stroke-width="1"/>
    </g>
    <g>
      <path d="M120.5,160.5 L150.5,160.5 L150.5,190.5 L120.5,190.5 z" fill="#65A1CF"/>
      <path d="M120.5,160.5 L150.5,160.5 L150.5,190.5 L120.5,190.5 z" fill-opacity="0" stroke="#294270" stroke-width="1"/>
    </g>
    <g>
      <path d="M150.5,160.5 L180.5,160.5 L180.5,190.5 L150.5,190.5 z" fill="#65A1CF"/>
      <path d="M150.5,160.5 L180.5,160.5 L180.5,190.5 L150.5,190.5 z" fill-opacity="0" stroke="#294270" stroke-width="1"/>
    </g>
    <g>
      <path d="M180.5,160.5 L210.5,160.5 L210.5,190.5 L180.5,190.5 z" fill="#8FC7ED"/>
      <path d="M180.5,160.5 L210.5,160.5 L210.5,190.5 L180.5,190.5 z" fill-opacity="0" stroke="#294270" stroke-width="1"/>
    </g>
    <path d="M30.5,10.5 L210.5,10.5 L210.5,190.5 L30.5,190.5 z" fill-opacity="0" stroke="#294270" stroke-width="4"/>
    <g>
      <path d="M75.5,65.5 C69.977,65.5 65.5,61.023 65.5,55.5 C65.5,49.977 69.977,45.5 75.5,45.5 C81.023,45.5 85.5,49.977 85.5,55.5 C85.5,61.023 81.023,65.5 75.5,65.5 z" fill="#FABA00"/>
      <path d="M75.5,65.5 C69.977,65.5 65.5,61.023 65.5,55.5 C65.5,49.977 69.977,45.5 75.5,45.5 C81.023,45.5 85.5,49.977 85.5,55.5 C85.5,61.023 81.023,65.5 75.5,65.5 z" fill-opacity="0" stroke="#294270" stroke-width="1"/>
    </g>
    <path d="M77.584,61.398 L75.018,61.398 L75.018,50.869 L72.416,50.869 L72.416,49.059 L77.584,48.602 z" fill="#294270"/>
    <g>
      <path d="M135.5,155.5 C129.977,155.5 125.5,151.023 125.5,145.5 C125.5,139.977 129.977,135.5 135.5,135.5 C141.023,135.5 145.5,139.977 145.5,145.5 C145.5,151.023 141.023,155.5 135.5,155.5 z" fill="#FABA00"/>
      <path d="M135.5,155.5 C129.977,155.5 125.5,151.023 125.5,145.5 C125.5,139.977 129.977,135.5 135.5,135.5 C141.023,135.5 145.5,139.977 145.5,145.5 C145.5,151.023 141.023,155.5 135.5,155.5 z" fill-opacity="0" stroke="#294270" stroke-width="1"/>
    </g>
    <path d="M139.47,151.491 L130.734,151.491 L130.734,149.812 L134.873,145.374 Q135.77,144.345 136.148,143.638 Q136.526,142.93 136.526,142.324 Q136.526,141.515 136.091,141.001 Q135.656,140.487 134.856,140.487 Q133.968,140.487 133.507,141.089 Q133.045,141.691 133.045,142.693 L130.549,142.693 L130.532,142.64 Q130.488,140.909 131.67,139.709 Q132.852,138.509 134.856,138.509 Q136.833,138.509 137.963,139.538 Q139.092,140.566 139.092,142.28 Q139.092,143.44 138.455,144.42 Q137.818,145.4 136.35,146.991 L134.074,149.478 L134.091,149.522 L139.47,149.522 z" fill="#294270"/>
    <g>
      <path d="M128.928,95.613 L130.183,88.295 L124.867,83.113 L132.214,82.045 L135.5,75.387 L138.786,82.045 L146.133,83.113 L140.817,88.295 L142.072,95.613 L135.5,92.158 z" fill="#F0801A"/>
      <path d="M128.928,95.613 L130.183,88.295 L124.867,83.113 L132.214,82.045 L135.5,75.387 L138.786,82.045 L146.133,83.113 L140.817,88.295 L142.072,95.613 L135.5,92.158 z" fill-opacity="0" stroke="#294270" stroke-width="1"/>
    </g>
    <path d="M132.286,56.132 L125.651,54.176 L126.903,50.287 L133.429,52.99 L133.033,45.365 L137.142,45.365 L136.725,53.121 L143.119,50.485 L144.349,54.44 L137.626,56.395 L142.02,62.218 L138.68,64.635 L134.857,58.263 L131.056,64.437 L127.694,62.108 z" fill="#294270"/>
    <path d="M162.286,56.132 L155.651,54.176 L156.903,50.287 L163.429,52.99 L163.033,45.365 L167.142,45.365 L166.725,53.121 L173.119,50.485 L174.349,54.44 L167.626,56.395 L172.02,62.218 L168.68,64.635 L164.857,58.263 L161.056,64.437 L157.694,62.108 z" fill="#294270"/>
    <path d="M162.286,86.132 L155.651,84.176 L156.903,80.287 L163.429,82.99 L163.033,75.365 L167.142,75.365 L166.725,83.121 L173.119,80.485 L174.349,84.44 L167.626,86.395 L172.02,92.218 L168.68,94.635 L164.857,88.263 L161.056,94.437 L157.694,92.108 z" fill="#294270"/>
    <path d="M162.286,116.132 L155.651,114.176 L156.903,110.287 L163.429,112.99 L163.033,105.365 L167.142,105.365 L166.725,113.121 L173.119,110.485 L174.349,114.44 L167.626,116.395 L172.02,122.218 L168.68,124.635 L164.857,118.263 L161.056,124.437 L157.694,122.108 z" fill="#294270"/>
    <path d="M102.286,116.132 L95.651,114.176 L96.903,110.287 L103.429,112.99 L103.033,105.365 L107.142,105.365 L106.725,113.121 L113.119,110.485 L114.349,114.44 L107.626,116.395 L112.02,122.218 L108.68,124.635 L104.857,118.263 L101.056,124.437 L97.694,122.108 z" fill="#294270"/>
    <path d="M72.286,116.132 L65.651,114.176 L66.903,110.287 L73.429,112.99 L73.033,105.365 L77.142,105.365 L76.725,113.121 L83.119,110.485 L84.349,114.44 L77.626,116.395 L82.02,122.218 L78.68,124.635 L74.857,118.263 L71.056,124.437 L67.694,122.108 z" fill="#294270"/>
  </g>
</svg>
